<svg version="1.1" id="Layer_2" xmlns="http://www.w3.org/2000/svg" xmlns:xlink="http://www.w3.org/1999/xlink" x="0px" y="0px" viewBox="0 0 500 500" style="enable-background:new 0 0 500 500;" xml:space="preserve">
<g>
	<rect x="-369.8" y="-186.434" style="display:none;" width="1239.6" height="872.869"/>
</g>
<g>
	<path style="fill:#2A2A89;" d="M267.073,221.85c1.981-15.684-9.973-22.231-24.895-22.231c-7.004,0-39.208,0-39.208,0
		l-23.144,84.353h24.914l7.006-26.007l19.85,0.121C231.595,258.087,262.335,259.387,267.073,221.85z M241.454,230.223
		c-3.242,9.045-12.176,7.98-12.176,7.98l-12.198,0.004l4.815-17.92c0,0,7.72,0.039,12.821,0.039
		C240.959,220.327,243.224,225.284,241.454,230.223z"/>
	<path style="fill:#2A2A89;" d="M124.745,222.686h22.725l-9.36,36.007c0,0-2.334,8.029,5.178,8.649
		c5.933,0.491,10.349-6.59,11.795-11.386c1.9-6.298,9.288-33.27,9.288-33.27h23.41l-17.815,61.285h-20.441l2.512-8.756
		c0,0-10.43,12.715-25.923,11.191c-13.772-1.353-14.96-11.343-12.574-23.805C114.713,256.484,124.745,222.686,124.745,222.686z"/>
	<path style="fill:#2A2A89;" d="M322.344,253.747c2.994-10.194,6.779-19.848,3.731-25.198c-4.664-8.189-13.095-8.908-25.428-8.908
		c-13.627,0-30.451,2.589-35.933,20.709c8.525,0,22.686,0,22.686,0s2.066-6.825,10.583-6.395c7.537,0.38,7.125,5.567,4.347,8.433
		c-4.871,5.025-18.325,2.238-33.224,7.408c-13.018,4.516-17.574,21.634-14.746,28.467c2.741,6.623,7.846,7.469,14.731,8.146
		c11.059,1.087,19.538-5.08,23.485-8.699c0,4.018,0.105,6.263,0.105,6.263h23.872l-0.057-2.246c0,0-2.127-0.564-1.89-3.553
		C314.78,275.983,318.904,265.456,322.344,253.747z M288.019,271.487c-3.893,0.989-8.613,1.522-9.55-2.013
		c-2.571-9.692,20.122-12.529,20.122-12.529C298.744,265.775,291.006,270.727,288.019,271.487z"/>
	<path style="fill:#2A2A89;" d="M119.093,219.261c1.98-15.682-11.819-19.642-26.741-19.642c-7.004,0-39.208,0-39.208,0L30,283.972
		h24.914l7.779-28.64l13.975,0.114c0,0,5.767-0.335,5.881,5.082c0.122,5.778-4.282,16.387-3.997,23.444c3.312,0,25.594,0,25.594,0
		l-0.057-2.246c0,0-2.127-0.564-1.89-3.553c0.099-1.244,1.472-5.178,3.268-10.485c1.083-2.339,2.718-7.888,2.567-12.408
		c-0.189-5.642-3.728-8.259-8.832-10.091C115.115,241.458,119.093,219.261,119.093,219.261z M92.663,230.031
		c-3.222,7.463-13.211,6.614-13.211,6.614l-11.629-0.054l4.247-15.804c0,0,10.404,0.039,15.505,0.039
		C93.036,220.826,94.742,225.213,92.663,230.031z"/>
	<path style="fill:#2A2A89;" d="M333.155,222.686h23.144v36.77l20.022-36.77h21.241l-42.824,74.341c0,0-3.975,6.236-8.907,9.535
		c-4.052,2.712-9.032,2.591-10.554,2.7c-8.459-0.073-18.662-0.096-18.662-0.096l4.921-17.72l7.965-0.014c0,0,3.644-0.371,5.053-2.17
		c1.342-1.713,2.027-3.426,2.027-5.938C336.581,279.557,333.155,222.686,333.155,222.686z"/>
	<polygon style="fill:#0F8047;" points="427.253,208.526 400.531,301.481 450.549,255.003"/>
	<polygon style="fill:#F0721D;" points="410.124,208.526 383.402,301.481 433.42,255.003"/>
	<g>
		<g>
			<path d="M459.874,210.989c-5.583,0-10.124-4.542-10.124-10.125c0-5.583,4.541-10.126,10.124-10.126
				c5.583,0,10.126,4.543,10.126,10.126C470,206.447,465.457,210.989,459.874,210.989z M459.874,191.651
				c-5.078,0-9.211,4.132-9.211,9.212c0,5.079,4.132,9.212,9.211,9.212c5.08,0,9.212-4.133,9.212-9.212
				C469.086,195.783,464.954,191.651,459.874,191.651z"/>
		</g>
	</g>
	<g>
		<path d="M454.962,204.643v-6.333h-2.364v-0.848h5.69v0.848h-2.375v6.333H454.962z"/>
		<path d="M459.733,204.643v-7.18h1.431l1.699,5.083c0.157,0.473,0.271,0.828,0.344,1.063c0.08-0.261,0.209-0.645,0.382-1.151
			l1.718-4.995h1.278v7.18h-0.915v-6.01l-2.086,6.01h-0.856l-2.077-6.113v6.113H459.733z"/>
	</g>
</g>
</svg>
